<svg width="50" height="49" viewBox="0 0 50 49" fill="none" xmlns="http://www.w3.org/2000/svg">
<g id="SvgjsG2145">
<g id="Group">
<g id="Group_2">
<g id="Group_3">
<g id="Group_4">
<path id="Vector" d="M25.7353 6.80145C24.9532 6.80145 24.1697 6.50323 23.5727 5.90584C22.3775 4.71152 22.3667 2.76388 23.562 1.56908C24.7563 0.374769 26.6825 0.364049 27.8764 1.55836L27.8978 1.5798C29.0931 2.7746 29.0931 4.71152 27.8978 5.90584C27.3014 6.50275 26.5173 6.80145 25.7353 6.80145Z" fill="#D4A61F"/>
<path id="Vector_2" d="M39.4859 20.5533C38.7048 20.5533 37.9266 20.2575 37.3287 19.664L37.2829 19.6182C36.0847 18.4273 36.0784 16.4909 37.2697 15.2922C38.4582 14.094 40.3966 14.0876 41.5953 15.2785L41.6426 15.3238C42.8403 16.5148 42.8461 18.4512 41.6557 19.6499C41.0588 20.2517 40.2714 20.5533 39.4859 20.5533ZM32.6099 13.6773C31.8283 13.6773 31.0448 13.3791 30.4474 12.7817L30.4016 12.7364C29.2073 11.5416 29.2073 9.6047 30.4016 8.41038C31.5959 7.21607 33.5338 7.21607 34.7271 8.41038L34.7734 8.4557C35.9682 9.6505 35.9682 11.5869 34.7734 12.7817C34.177 13.3786 33.393 13.6773 32.6099 13.6773Z" fill="#D4A61F"/>
<path id="Vector_3" d="M46.3203 27.4085C45.5387 27.4085 44.7567 27.1132 44.1627 26.5187C43.2792 25.6353 43.0429 24.3533 43.462 23.2623C43.6096 22.8637 43.843 22.4909 44.1627 22.1703C45.3565 20.9765 47.2827 20.9657 48.477 22.1596L48.4999 22.181C49.6942 23.3758 49.6942 25.3127 48.4999 26.508C47.9006 27.1078 47.1107 27.4085 46.3203 27.4085Z" fill="#D4A61F"/>
<path id="Vector_4" d="M32.5658 41.1756C31.7833 41.1756 30.9992 40.8774 30.4033 40.28C29.208 39.0857 29.208 37.1478 30.4033 35.9535L30.4491 35.9086C31.6424 34.7134 33.5813 34.7134 34.7746 35.9086C35.969 37.103 35.969 39.0399 34.7746 40.2342L34.7288 40.28C34.1314 40.8774 33.3474 41.1756 32.5658 41.1756ZM39.4403 34.3006C38.6587 34.3006 37.8747 34.0029 37.2778 33.4055C36.0835 32.2107 36.0835 30.2733 37.2778 29.079L37.3226 29.0327C38.5164 27.8394 40.4548 27.8394 41.6482 29.0327C42.843 30.227 42.843 32.1649 41.6482 33.3602L41.6033 33.4055C41.0069 34.0019 40.2243 34.3006 39.4403 34.3006Z" fill="#D4A61F"/>
<path id="Vector_5" d="M25.7133 48.0266C24.9317 48.0266 24.1477 47.7289 23.5508 47.1305C22.3555 45.9367 22.3555 43.9998 23.5508 42.805C24.7451 41.6102 26.6913 41.599 27.8856 42.7943C29.0818 43.9895 29.0925 45.9157 27.8963 47.1091L27.8748 47.1305C27.2789 47.7274 26.4959 48.0266 25.7133 48.0266Z" fill="#D4A61F"/>
</g>
</g>
<g id="Group_5">
<g id="Group_6">
<path id="Vector_6" d="M16.0471 6.19039C15.4209 6.19039 14.7943 5.95114 14.3168 5.47361C13.3612 4.51806 13.3505 2.9578 14.306 2.00177C15.2611 1.0472 16.8004 1.03599 17.756 1.99105L17.7774 2.01249C18.7334 2.96804 18.7334 4.51757 17.7774 5.47361C17.2999 5.95114 16.6737 6.19039 16.0471 6.19039Z" fill="#D4A61F"/>
<path id="Vector_7" d="M29.7973 19.9418C29.1746 19.9418 28.5494 19.7045 28.0733 19.2304L28.0261 19.1841C27.0666 18.2315 27.0618 16.6829 28.0158 15.7235C28.9685 14.765 30.5175 14.7591 31.4765 15.7127L31.5237 15.7581C32.4827 16.7107 32.4876 18.2597 31.5345 19.2187C31.0545 19.7001 30.4264 19.9418 29.7973 19.9418ZM22.9223 13.0659C22.2962 13.0659 21.6696 12.8271 21.192 12.3491L21.1467 12.3038C20.1907 11.3477 20.1907 9.79867 21.1467 8.84264C22.1013 7.88709 23.6523 7.88709 24.6073 8.84264L24.6527 8.88795C25.6077 9.8435 25.6077 11.393 24.6527 12.3491C24.1756 12.8266 23.549 13.0659 22.9223 13.0659Z" fill="#D4A61F"/>
<path id="Vector_8" d="M36.6333 26.7976C36.0071 26.7976 35.3834 26.5623 34.9078 26.0867C34.2008 25.3796 34.0122 24.3525 34.348 23.4793C34.4654 23.1591 34.653 22.8604 34.9078 22.6031C35.8644 21.6486 37.4032 21.6379 38.3577 22.5924L38.3797 22.6139C39.3352 23.5694 39.3352 25.1194 38.3797 26.0755C37.8987 26.5569 37.2648 26.7976 36.6333 26.7976Z" fill="#D4A61F"/>
<path id="Vector_9" d="M22.8779 40.5641C22.2542 40.5641 21.6305 40.3273 21.1529 39.8542C20.1945 38.9001 20.1891 37.3505 21.1417 36.3926L21.1871 36.3463C22.1402 35.3878 23.6892 35.3824 24.6482 36.3355C25.6066 37.2882 25.6115 38.8377 24.6594 39.7971L24.6141 39.843C24.1356 40.3244 23.507 40.5641 22.8779 40.5641ZM29.7524 33.6891C29.1272 33.6891 28.5006 33.4509 28.0221 32.9733C27.066 32.0163 27.066 30.4658 28.0221 29.5117L28.0679 29.4659C29.0234 28.5114 30.5744 28.5114 31.529 29.4659C32.485 30.422 32.485 31.972 31.529 32.9275L31.4827 32.9743C31.0057 33.4509 30.3785 33.6891 29.7524 33.6891Z" fill="#D4A61F"/>
<path id="Vector_10" d="M16.0264 47.4163C15.4003 47.4163 14.7737 47.178 14.2961 46.6995C13.3401 45.7435 13.3401 44.1939 14.2961 43.2384C15.2512 42.2829 16.8119 42.2726 17.7675 43.2282C18.723 44.1842 18.7342 45.722 17.7782 46.6781L17.7563 46.6995C17.2787 47.178 16.6521 47.4163 16.0264 47.4163Z" fill="#D4A61F"/>
</g>
</g>
<g id="Group_7">
<g id="Group_8">
<path id="Vector_11" d="M8.52748 5.57769C8.05775 5.57769 7.58801 5.39886 7.22987 5.04023C6.5126 4.32393 6.50188 3.15106 7.21915 2.43477C7.93447 1.71847 9.08639 1.70629 9.80366 2.42405L9.8251 2.44549C10.5419 3.16178 10.5419 4.32393 9.8251 5.04072C9.46695 5.39886 8.99721 5.57769 8.52748 5.57769Z" fill="#D4A61F"/>
<path id="Vector_12" d="M22.2779 19.3288C21.8082 19.3288 21.3385 19.1495 20.9803 18.7909L20.935 18.7456C20.2182 18.0288 20.2182 16.8671 20.935 16.1504C21.6518 15.4336 22.8135 15.4336 23.5302 16.1504L23.5756 16.1957C24.2923 16.9124 24.2923 18.0741 23.5756 18.7909C23.2169 19.1495 22.7472 19.3288 22.2779 19.3288ZM15.402 12.4534C14.9323 12.4534 14.463 12.2746 14.1044 11.9159L14.0591 11.8701C13.3423 11.1538 13.3423 9.99167 14.0591 9.27489C14.7759 8.55811 15.9375 8.55811 16.6543 9.27489L16.6996 9.3207C17.4164 10.037 17.4164 11.1991 16.6996 11.9159C16.3415 12.2746 15.8717 12.4534 15.402 12.4534Z" fill="#D4A61F"/>
<path id="Vector_13" d="M29.1125 26.1846C28.6437 26.1846 28.1764 26.0087 27.8207 25.6525C27.2891 25.1209 27.1454 24.3495 27.3992 23.6941C27.4889 23.4534 27.6283 23.2283 27.8207 23.0354C28.5365 22.3191 29.6889 22.3069 30.4057 23.0246L30.4272 23.0461C31.1444 23.7624 31.1444 24.924 30.4272 25.6413C30.0656 26.0038 29.589 26.1846 29.1125 26.1846Z" fill="#D4A61F"/>
<path id="Vector_14" d="M15.3566 39.9529C14.8889 39.9529 14.4211 39.7755 14.0634 39.4188C13.3442 38.7045 13.3403 37.5428 14.0551 36.8236L14.1004 36.7783C14.8148 36.0586 15.9774 36.0556 16.6957 36.7685C17.4149 37.4834 17.4183 38.646 16.704 39.3642L16.6586 39.4105C16.3005 39.7726 15.8283 39.9529 15.3566 39.9529ZM22.2321 33.0779C21.7624 33.0779 21.2926 32.8986 20.9345 32.5399C20.2177 31.8232 20.2177 30.6615 20.9345 29.9457L20.9798 29.8989C21.6966 29.1821 22.8582 29.1821 23.575 29.8989C24.2918 30.6157 24.2918 31.7774 23.575 32.4941L23.5297 32.5399C23.1716 32.8986 22.7018 33.0779 22.2321 33.0779Z" fill="#D4A61F"/>
<path id="Vector_15" d="M8.50647 46.8028C8.03673 46.8028 7.567 46.6245 7.20885 46.2649C6.49158 45.5476 6.49158 44.3869 7.20885 43.6701C7.92466 42.9528 9.09851 42.9426 9.8148 43.6594C10.5316 44.3771 10.5423 45.5271 9.82552 46.2444L9.80408 46.2663C9.44545 46.6245 8.97571 46.8028 8.50647 46.8028Z" fill="#D4A61F"/>
</g>
</g>
<g id="Group_9">
<g id="Group_10">
<path id="Vector_16" d="M1.91243 4.96604C1.59911 4.96604 1.28628 4.84665 1.04751 4.60789C0.569495 4.12987 0.558774 3.34438 1.03679 2.86685C1.51335 2.38932 2.27837 2.37763 2.75639 2.85613L2.77734 2.87708C3.25487 3.35413 3.25487 4.12938 2.77734 4.6074C2.53858 4.84617 2.22526 4.96604 1.91243 4.96604Z" fill="#D4A61F"/>
<path id="Vector_17" d="M15.6637 18.7169C15.3519 18.7169 15.04 18.599 14.8017 18.3616L14.7555 18.3163C14.276 17.8398 14.273 17.0655 14.7496 16.586C15.2266 16.107 16.0019 16.1041 16.4799 16.5802L16.5257 16.626C17.0057 17.1025 17.0081 17.8768 16.5316 18.3563C16.2928 18.597 15.978 18.7169 15.6637 18.7169ZM8.78876 11.8419C8.47544 11.8419 8.16261 11.7225 7.92385 11.4833L7.87804 11.4375C7.40003 10.9599 7.40003 10.1852 7.87804 9.70715C8.35606 9.22913 9.13034 9.22913 9.60836 9.70715L9.65416 9.75295C10.1322 10.2305 10.1322 11.0052 9.65416 11.4833C9.41442 11.7225 9.10159 11.8419 8.78876 11.8419Z" fill="#D4A61F"/>
<path id="Vector_18" d="M22.4983 25.5739C22.1854 25.5739 21.8746 25.457 21.6387 25.2202C21.2815 24.8649 21.1856 24.3489 21.3576 23.9113C21.4155 23.7491 21.5091 23.5975 21.6387 23.4684C22.1158 22.9909 22.8808 22.9792 23.3578 23.4577L23.3793 23.4791C23.8568 23.9562 23.8568 24.7319 23.3793 25.2095C23.1381 25.4521 22.8179 25.5739 22.4983 25.5739Z" fill="#D4A61F"/>
<path id="Vector_19" d="M8.74296 39.34C8.42964 39.34 8.1173 39.2202 7.87804 38.9819C7.40003 38.5049 7.40003 37.7301 7.87804 37.2511L7.92385 37.2053C8.40187 36.7282 9.17566 36.7282 9.65416 37.2053C10.1322 37.6828 10.1322 38.4586 9.65416 38.9356L9.60836 38.9819C9.36862 39.2197 9.05579 39.34 8.74296 39.34ZM15.6184 32.4651C15.3051 32.4651 14.9923 32.3452 14.7535 32.1064C14.2755 31.6294 14.2755 30.8536 14.7535 30.3761L14.7988 30.3298C15.2764 29.8523 16.0511 29.8523 16.5291 30.3298C17.0067 30.8074 17.0067 31.5831 16.5291 32.0601L16.4838 32.1064C16.2446 32.3452 15.9312 32.4651 15.6184 32.4651Z" fill="#D4A61F"/>
<path id="Vector_20" d="M1.8914 46.191C1.57808 46.191 1.26525 46.0721 1.02648 45.8334C0.548464 45.3563 0.548464 44.5816 1.02648 44.1031C1.50352 43.626 2.28999 43.6143 2.76752 44.0923C3.24505 44.5704 3.25577 45.3344 2.77824 45.8119L2.7568 45.8334C2.51706 46.0721 2.20423 46.191 1.8914 46.191Z" fill="#D4A61F"/>
</g>
</g>
</g>
</g>
</g>
</svg>
