<svg width="19" height="19" viewBox="0 0 19 19" fill="none" xmlns="http://www.w3.org/2000/svg">
<g clip-path="url(#clip0_1_163)">
<path d="M13.2667 0.910156H5.1356C2.41475 0.910156 0.201172 3.12373 0.201172 5.84462V13.9757C0.201172 16.6966 2.41475 18.9102 5.1356 18.9102H13.2667C15.9876 18.9102 18.2012 16.6966 18.2012 13.9757V5.84462C18.2012 3.12373 15.9876 0.910156 13.2667 0.910156ZM17.1382 13.9757C17.1382 16.1105 15.4015 17.8472 13.2667 17.8472H5.1356C3.00087 17.8472 1.26416 16.1105 1.26416 13.9757V5.84462C1.26416 3.70986 3.00087 1.97314 5.1356 1.97314H13.2667C15.4015 1.97314 17.1382 3.70986 17.1382 5.84462V13.9757Z" fill="white"/>
<path d="M9.2007 4.97266C6.47841 4.97266 4.26367 7.18739 4.26367 9.90968C4.26367 12.632 6.47837 14.8467 9.2007 14.8467C11.923 14.8467 14.1378 12.6319 14.1378 9.90965C14.1378 7.18736 11.923 4.97266 9.2007 4.97266ZM9.2007 13.7838C7.06454 13.7838 5.32662 12.0458 5.32662 9.90965C5.32662 7.77348 7.06454 6.03557 9.2007 6.03557C11.3369 6.03557 13.0748 7.77352 13.0748 9.90968C13.0748 12.0458 11.3369 13.7838 9.2007 13.7838Z" fill="white"/>
<path d="M14.4336 3.17773C13.6065 3.17773 12.9336 3.85066 12.9336 4.67775C12.9336 5.50483 13.6065 6.17772 14.4336 6.17772C15.2607 6.17772 15.9335 5.5048 15.9335 4.67771C15.9335 3.85063 15.2607 3.17773 14.4336 3.17773ZM14.4336 5.1147C14.1926 5.1147 13.9966 4.91867 13.9966 4.67771C13.9966 4.43675 14.1926 4.24072 14.4336 4.24072C14.6745 4.24072 14.8706 4.43679 14.8706 4.67771C14.8706 4.91864 14.6745 5.1147 14.4336 5.1147Z" fill="white"/>
</g>
<defs>
<clipPath id="clip0_1_163">
<rect width="18" height="18" fill="white" transform="translate(0.201172 0.910156)"/>
</clipPath>
</defs>
</svg>
