<svg width="19" height="19" viewBox="0 0 19 19" fill="none" xmlns="http://www.w3.org/2000/svg">
<g clip-path="url(#clip0_1_176)">
<path d="M18.4023 4.32903C17.733 4.62266 17.0197 4.81728 16.2761 4.91178C17.0411 4.45503 17.625 3.73728 17.8995 2.87216C17.1862 3.29741 16.3987 3.59778 15.5595 3.76541C14.8822 3.04428 13.917 2.59766 12.864 2.59766C10.821 2.59766 9.17622 4.25591 9.17622 6.28878C9.17622 6.58128 9.20097 6.86253 9.26172 7.13028C6.19384 6.98066 3.47922 5.51028 1.65559 3.27041C1.33722 3.82278 1.15047 4.45503 1.15047 5.13566C1.15047 6.41366 1.80859 7.54653 2.78959 8.20241C2.19672 8.19116 1.61509 8.01903 1.12234 7.74791C1.12234 7.75916 1.12234 7.77378 1.12234 7.78841C1.12234 9.58166 2.40147 11.0712 4.07884 11.4143C3.77847 11.4964 3.45109 11.5358 3.11134 11.5358C2.87509 11.5358 2.63659 11.5223 2.41272 11.4728C2.89084 12.9342 4.24759 14.0085 5.86084 14.0434C4.60534 15.0255 3.01122 15.6173 1.28547 15.6173C0.982844 15.6173 0.692594 15.6038 0.402344 15.5667C2.03697 16.6208 3.97422 17.2227 6.06334 17.2227C12.8538 17.2227 16.5663 11.5977 16.5663 6.72191C16.5663 6.55878 16.5607 6.40128 16.5528 6.24491C17.2852 5.72516 17.9006 5.07603 18.4023 4.32903Z" fill="white"/>
</g>
<defs>
<clipPath id="clip0_1_176">
<rect width="18" height="18" fill="white" transform="translate(0.402344 0.910156)"/>
</clipPath>
</defs>
</svg>
